<svg xmlns="http://www.w3.org/2000/svg" viewBox="0 0 498 215" preserveAspectRatio="none" shape-rendering="crispEdges"><rect x="0" y="0" width="35" height="35" fill="rgba(83,98,111,0.05)"/><rect x="36" y="0" width="35" height="35" fill="rgba(83,98,111,0.04)"/><rect x="144" y="0" width="35" height="35" fill="rgba(80,95,107,0.10)"/><rect x="180" y="0" width="35" height="35" fill="rgba(77,92,104,0.15)"/><rect x="216" y="0" width="35" height="35" fill="rgba(74,87,99,0.21)"/><rect x="252" y="0" width="35" height="35" fill="rgba(71,83,94,0.27)"/><rect x="288" y="0" width="35" height="35" fill="rgba(63,74,84,0.41)"/><rect x="324" y="0" width="35" height="35" fill="rgba(56,65,75,0.53)"/><rect x="360" y="0" width="35" height="35" fill="rgba(48,56,64,0.67)"/><rect x="396" y="0" width="35" height="35" fill="rgba(41,48,55,0.79)"/><rect x="432" y="0" width="35" height="35" fill="rgba(30,34,40,0.99)"/><rect x="72" y="36" width="35" height="35" fill="rgba(83,98,111,0.05)"/><rect x="108" y="36" width="35" height="35" fill="rgba(83,98,111,0.04)"/><rect x="252" y="36" width="35" height="35" fill="rgba(82,97,110,0.06)"/><rect x="288" y="36" width="35" height="35" fill="rgba(78,93,105,0.13)"/><rect x="324" y="36" width="35" height="35" fill="rgba(71,84,95,0.26)"/><rect x="360" y="36" width="35" height="35" fill="rgba(66,78,88,0.35)"/><rect x="396" y="36" width="35" height="35" fill="rgba(59,69,79,0.47)"/><rect x="432" y="36" width="35" height="35" fill="rgba(48,56,65,0.66)"/><rect x="252" y="72" width="35" height="35" fill="rgba(82,97,110,0.06)"/><rect x="288" y="72" width="35" height="35" fill="rgba(82,97,110,0.06)"/><rect x="324" y="72" width="35" height="35" fill="rgba(82,97,110,0.06)"/><rect x="360" y="72" width="35" height="35" fill="rgba(75,88,100,0.19)"/><rect x="396" y="72" width="35" height="35" fill="rgba(71,83,94,0.27)"/><rect x="432" y="72" width="35" height="35" fill="rgba(65,77,88,0.36)"/><rect x="0" y="108" width="35" height="35" fill="rgba(83,99,111,0.04)"/><rect x="144" y="108" width="35" height="35" fill="rgba(83,98,111,0.05)"/><rect x="180" y="108" width="35" height="35" fill="rgba(83,98,111,0.05)"/><rect x="396" y="108" width="35" height="35" fill="rgba(81,96,109,0.08)"/><rect x="432" y="108" width="35" height="35" fill="rgba(75,89,101,0.18)"/><rect x="252" y="144" width="35" height="35" fill="rgba(83,99,111,0.04)"/><rect x="432" y="144" width="35" height="35" fill="rgba(83,98,111,0.05)"/></svg>